<?xml version="1.0" encoding="utf-8"?>
<!-- Generator: Adobe Illustrator 18.1.1, SVG Export Plug-In . SVG Version: 6.00 Build 0)  -->
<!DOCTYPE svg PUBLIC "-//W3C//DTD SVG 1.1//EN" "http://www.w3.org/Graphics/SVG/1.1/DTD/svg11.dtd">
<svg version="1.1" id="Layer_1" xmlns="http://www.w3.org/2000/svg" xmlns:xlink="http://www.w3.org/1999/xlink" x="0px" y="0px"
	 viewBox="0 0 350 350" style="enable-background:new 0 0 350 350;" xml:space="preserve">
<style type="text/css">
	.st0{fill:#4984C4;}
	.st1{fill:#68BBE9;}
	.st2{fill:#F0C697;}
	.st3{fill:#876740;}
	.st4{fill:#FED09E;}
	.st5{fill:#FFFFFF;}
	.st6{fill:#E6BE91;}
	.st7{fill:#F6ADCD;}
	.st8{fill:#ED1C24;}
	.st9{fill:#414042;}
	.st10{fill:#D71920;}
	.st11{fill:#82CA9C;}
	.st12{fill:#76B88F;}
	.st13{fill:#B4DDC0;}
	.st14{fill:#B67222;}
</style>
<g>
	<g>
		<g>
			<g>
				<path class="st0" d="M113.8,190.9c-25.6,0-54.6,17.8-54.6,48.9c0,0.5,0,1.1,0,1.6c16.6,7,35.1,10.9,54.6,10.9s38-3.9,54.6-10.9
					c0-0.5,0-1.1,0-1.6C168.4,208.7,139.4,190.9,113.8,190.9z"/>
				<g>
					<g>
						<path class="st1" d="M76.8,247.2c1.1-7.5,8.1-24.9,8.1-24.9S74.3,237.8,72.3,246C73.8,246.4,75.3,246.8,76.8,247.2z
							 M142.6,222.3c0,0,7,17.5,8.1,24.9c1.5-0.4,3-0.8,4.4-1.3C153.2,237.8,142.6,222.3,142.6,222.3z"/>
					</g>
				</g>
			</g>
			<path class="st2" d="M101.8,202.9c0,5.9,4.2,10.7,12,10.7c7.7,0,12-4.8,12-10.7H101.8z"/>
		</g>
		<g>
			<g>
				<path class="st3" d="M136.8,117.5c-7.1-4.9-13.9-7.2-26.9-7.2c-31.5,0-48.8,16.7-45.3,45.9c3.4,28.1,18.8,45.3,50.4,45.3
					s45.3-17.4,50.4-45.3C168.3,139.6,160.6,117.4,136.8,117.5z"/>
				<g>
					<g>
						<g>
							<path class="st2" d="M160.3,159.5c0.4,2.2,0.6,4.4,0.6,6.7c0,2.7-0.5,5.3-1,7.8c3.8-1,6.9-5.4,6.9-9
								C166.8,161.4,164,159.8,160.3,159.5z M69.6,159.5c-3.7,0.4-6.5,2-6.5,5.5c0,3.6,3.1,8,6.9,9c-0.5-2.5-1-5.1-1-7.8
								C69,163.9,69.2,161.7,69.6,159.5z"/>
						</g>
					</g>
					<g>
						<g>
							<path class="st4" d="M160.3,159.5c-22.5-2.2-33.4-18.8-33.4-18.8c-12.4,15.2-48.3,13.1-57.8,22.6c0,0,0,0,0,0
								c-0.1,0.9-0.1,1.8-0.1,2.8c0,22.7,20.6,41.2,46,41.2c25.4,0,46-18.4,46-41.2C160.9,163.8,160.7,161.6,160.3,159.5z"/>
						</g>
					</g>
				</g>
				<g>
					<ellipse class="st5" cx="89.5" cy="166" rx="9.1" ry="8.2"/>
					<ellipse cx="89.5" cy="166" rx="5.8" ry="5.2"/>
					<ellipse class="st5" cx="93.4" cy="162.5" rx="3" ry="2.7"/>
				</g>
				<g>
					<ellipse class="st5" cx="140.3" cy="166" rx="9.1" ry="8.2"/>
					<ellipse cx="140.3" cy="166" rx="5.8" ry="5.2"/>
					<ellipse class="st5" cx="144.2" cy="162.5" rx="3" ry="2.7"/>
				</g>
				<path class="st6" d="M104.8,179.1c2.7-6.2,16.8-5.5,20.5-2.8C118.2,175.3,107.7,177.1,104.8,179.1z"/>
				<g>
					<path class="st7" d="M128.8,187.3c0,7-6.4,10.9-14.2,10.9c-7.9,0-14.2-3.9-14.2-10.9c0,0,5-1.4,14.2-1.4
						C123.8,186,128.8,187.3,128.8,187.3z"/>
					<path class="st5" d="M114.6,186c-9.2,0-14.2,1.4-14.2,1.4c0,0.9,0,0,0,0.9c0.7,1.1,2.3,1.6,3.8,1.7c1.4,0.1,2.5,0.6,3.2-0.3
						c0.6,1.3,2,1.1,3.7,1.1c1.5,0,2.8,0.3,3.5-0.7c0.7,1.1,2,0.7,3.5,0.7c1.7,0,3.1,0.2,3.7-1.1c0.7,0.9,1.9,0.3,3.2,0.3
						c1.5,0,3.1-0.7,3.8-1.7c0-0.9,0,0,0-0.9C128.8,187.3,123.8,186,114.6,186z"/>
					<path class="st8" d="M109.6,197.7c1.7,0.4,3.8,0.6,5.8,0.6c5.5,0,10.6-2.6,12.7-7C121.7,191.5,113.4,194.1,109.6,197.7z"/>
				</g>
			</g>
			<g>
				<path d="M182.5,131.9c0,9-14.6,18.6-66.3,18.6S50,140.9,50,131.9c0-3.4,14.6-10.5,66.3-10.5S182.5,128.5,182.5,131.9z"/>
				<path class="st9" d="M162.3,139.4c0,0-3.1-34.2-16.6-41c-6.6-3.3-26.9,4-32,4c-5,0-25.4-7.3-32-4c-13.5,6.8-16.6,41-16.6,41
					H162.3z"/>
				<path class="st10" d="M65.2,139.4h97.1c0,0-0.3-3.7-1.2-8.8H66.4C65.5,135.8,65.2,139.4,65.2,139.4z"/>
				<path class="st9" d="M182.5,131.9c0,9-14.6,18.6-66.3,18.6S50,140.9,50,131.9c3.5,4.8,14.6,3.4,66.3,3.4
					S178.7,136.5,182.5,131.9z"/>
			</g>
		</g>
	</g>
	<path d="M161,162c-1.3-0.9-3-1.6-4.1-2.5c-1.4-1.1-3.1-1.8-5.2-2.1c-7.5-1.1-15.1-1.6-22.8-1c-3.9,0.3-7.6,1-10.2,3
		c-1.5,1.1-3.1,1.7-5.5,1.6c-1.8-0.1-3.3-0.3-4.4-1.2c-1.8-1.5-4.3-2.4-7.1-2.9c-3.3-0.6-6.7-0.7-10.6-0.8c-1.7,0.1-3.9,0.1-6.1,0.3
		c-3.6,0.3-7.1,0.7-10.6,1.2c-1.7,0.2-3.1,0.8-4.2,1.8c-1.1,0.9-2.3,1.7-3.8,2.3c-1.3,0.6-1.8,1.3-1.7,2.2c0.1,0.4-0.1,0.9,0.1,1.3
		c0.1,0.2,0.5,0.6,0.8,0.6c1.2,0,1.4,0.4,1.6,1c0.5,1.9,1.2,3.8,2.6,5.5c2.3,2.8,5.8,4.7,11.1,4.9c2.4,0.1,4.9,0.1,7.4,0.1
		c3.6-0.1,7.2-0.4,10.5-1.3c1.1-0.3,2.1-0.7,2.9-1.2c3.5-2.1,5.7-4.7,7-7.6c0.4-0.9,0.9-1.8,1.5-2.7c0.6-0.9,1.8-1.2,3.3-1.2
		c1.5,0,2.6,0.3,3.2,1.2c0.4,0.6,0.8,1.3,1.1,2c1.3,2.8,3.1,5.4,6.3,7.6c1.6,1.1,3.4,1.8,5.7,2.2c5.6,1,11.4,1.2,17.2,0.8
		c4.2-0.3,7.1-1.7,9.3-3.9c2-2,3-4.2,3.5-6.5c0.2-0.6,0.4-1,1.6-1c0.3,0,0.7-0.3,0.8-0.4c0.1-0.7,0.2-1.5,0-2.2
		C161.9,162.7,161.5,162.3,161,162z M107.7,163.6c-0.5,3.5-2.5,6.7-6.2,9.4c-2.7,2-6.4,2.9-10.5,3.2c-2.1,0.2-4.2,0.2-6.7,0.4
		c-1.8-0.1-4-0.3-6.2-0.5c-2.1-0.3-4-1-5.2-2.1c-3.6-3.6-5.1-7.4-3.7-11.6c0.7-2.1,2.8-3.5,6.1-4.2c3.5-0.7,7-1,10.6-1.1
		c4.5-0.2,9.1-0.2,13.5,0.5c0.9,0.1,1.8,0.3,2.6,0.5C106.3,159.2,108.1,160.9,107.7,163.6z M154.5,173.5c-1.7,1.9-4.7,2.7-8.1,3
		c-1.5,0.1-2.9,0.1-4.4,0.2c0,0,0,0.1,0,0.1c-2.7-0.2-5.5-0.3-8.2-0.7c-4.7-0.6-8.3-2.3-10.7-4.8c-2.2-2.3-3.6-4.7-4-7.3
		c-0.5-3,1.3-4.9,6.1-5.9c2.3-0.5,4.8-0.8,7.2-0.9c5.9-0.3,11.7-0.1,17.4,0.8c4.8,0.7,7.4,2.5,8,5.5
		C158.6,167,157.3,170.3,154.5,173.5z"/>
</g>
<g>
	<g>
		<g>
			<path class="st11" d="M241,188.2c-27.7,0-59,18.9-59,52c0,0.6,0,1.1,0,1.7c17.9,7.4,37.9,11.6,59,11.6s41.1-4.2,59-11.6
				c0-0.6,0-1.1,0-1.7C300,207.2,268.7,188.2,241,188.2z"/>
			<g>
				<g>
					<path class="st12" d="M201,248.2c1.2-7.9,8.8-26.5,8.8-26.5s-11.4,16.4-13.6,25.1C197.8,247.3,199.4,247.7,201,248.2z
						 M272.2,221.7c0,0,7.5,18.6,8.8,26.5c1.6-0.4,3.2-0.9,4.8-1.4C283.6,238.1,272.2,221.7,272.2,221.7z"/>
				</g>
			</g>
		</g>
		<g>
			<polygon class="st13" points="241,212.4 269.1,218.6 259.8,199.9 246.8,201 			"/>
			<polygon class="st13" points="241,212.4 212.9,218.6 222.2,199.9 235.2,201 			"/>
		</g>
		<path class="st2" d="M228.1,201c0,6.3,12.9,11.4,12.9,11.4s12.9-5.1,12.9-11.4H228.1z"/>
	</g>
	<g>
		<path class="st14" d="M277.8,97.1c-10.6,3.3-35.6-0.6-49.7-0.6c-13.6,0-21.7,8.4-21.1,18.4c-19.9,2.1-20.9,18.4-19.1,36.4
			c2.9,29.1,20.4,48.2,54.4,48.2c34.1,0,51.5-18.3,54.4-48.2c1.6-16,3.3-28.1-7.6-39.1c-8.2-8.3-18.2-6.6-20.7-8.2
			C270.6,103.4,275.5,101.5,277.8,97.1z"/>
		<g>
			<g>
				<g>
					<path class="st2" d="M291.3,154.9c0.4,2.3,0.7,4.7,0.7,7.1c0,2.8-0.5,5.6-1.1,8.3c4.1-1.1,7.4-5.8,7.4-9.6
						C298.3,157,295.3,155.3,291.3,154.9z M193.3,154.9c-4,0.4-7,2.1-7,5.9c0,3.8,3.3,8.5,7.4,9.6c-0.6-2.7-1.1-5.5-1.1-8.3
						C192.6,159.6,192.8,157.2,193.3,154.9z"/>
				</g>
			</g>
			<g>
				<g>
					<path class="st4" d="M291.8,159C291.8,159,291.8,159,291.8,159c-7.2-8.4-37.1-9-49.4-18.9c0,2.1,2.5,4.6,4.7,5.7
						c-17,0.2-35.7-8.9-42.1-16.6c0,0-8.7,7.1-11.7,25.6c-0.4,2.3-0.6,4.6-0.6,7c0,24.2,22.2,43.7,49.7,43.7
						c27.4,0,49.7-19.6,49.7-43.7C291.9,160.9,291.9,160,291.8,159z"/>
				</g>
			</g>
		</g>
		<g>
			<g>
				<g>
					<ellipse class="st5" cx="217.7" cy="161.8" rx="9.9" ry="8.7"/>
					<ellipse cx="217.7" cy="161.8" rx="6.3" ry="5.6"/>
					<ellipse class="st5" cx="221.8" cy="158.1" rx="3.3" ry="2.9"/>
				</g>
				<g>
					<ellipse class="st5" cx="266.8" cy="161.8" rx="9.9" ry="8.7"/>
					<ellipse cx="266.8" cy="161.8" rx="6.3" ry="5.6"/>
					<ellipse class="st5" cx="271" cy="158.1" rx="3.3" ry="2.9"/>
				</g>
			</g>
			<path class="st6" d="M231.3,174.6c2.9-6.6,18.2-5.9,22.2-2.9C245.8,170.5,234.5,172.4,231.3,174.6z"/>
		</g>
		<g>
			<path class="st7" d="M256,183.5c0,7-6.4,10.9-14.2,10.9c-7.9,0-14.2-3.9-14.2-10.9c0,0,5-1.4,14.2-1.4
				C251,182.1,256,183.5,256,183.5z"/>
			<path class="st5" d="M241.8,182.1c-9.2,0-14.2,1.4-14.2,1.4c0,0.9,0,0,0,0.9c0.7,1.1,2.3,1.6,3.8,1.7c1.4,0.1,2.5,0.6,3.2-0.3
				c0.6,1.3,2,1.1,3.7,1.1c1.5,0,2.8,0.3,3.5-0.7c0.7,1.1,2,0.7,3.5,0.7c1.7,0,3.1,0.2,3.7-1.1c0.7,0.9,1.9,0.3,3.2,0.3
				c1.5,0,3.1-0.7,3.8-1.7c0-0.9,0,0,0-0.9C256,183.5,251,182.1,241.8,182.1z"/>
			<path class="st8" d="M236.8,193.8c1.7,0.4,3.8,0.6,5.8,0.6c5.5,0,10.6-2.6,12.7-7C248.9,187.6,240.5,190.2,236.8,193.8z"/>
		</g>
		<path d="M287.5,157.4c-1.3-0.9-2.9-1.7-4.1-2.7c-1.3-1.2-3-1.9-5.1-2.2c-7.3-1.2-14.8-1.8-22.3-1.1c-3.8,0.3-7.5,1-10,3.2
			c-1.4,1.2-3,1.8-5.4,1.7c-1.8-0.1-3.2-0.3-4.3-1.3c-1.8-1.6-4.2-2.6-7-3.1c-3.2-0.6-6.5-0.8-10.4-0.8c-1.6,0.1-3.8,0.1-5.9,0.3
			c-3.5,0.4-7,0.8-10.4,1.3c-1.7,0.2-3,0.9-4.1,1.9c-1,0.9-2.3,1.8-3.7,2.5c-1.3,0.6-1.8,1.4-1.7,2.4c0.1,0.5-0.1,0.9,0.1,1.4
			c0.1,0.2,0.5,0.6,0.8,0.6c1.1,0,1.4,0.5,1.5,1.1c0.5,2.1,1.2,4.1,2.6,6c2.2,3,5.6,5.1,10.9,5.3c2.4,0.1,4.8,0.1,7.2,0.1
			c3.5-0.1,7.1-0.5,10.3-1.4c1-0.3,2.1-0.7,2.9-1.2c3.4-2.3,5.6-5.1,6.9-8.2c0.4-1,0.9-1.9,1.4-2.9c0.5-1,1.7-1.3,3.2-1.2
			c1.5,0,2.6,0.3,3.1,1.2c0.4,0.7,0.7,1.4,1.1,2.1c1.3,3,3,5.8,6.2,8.2c1.5,1.2,3.4,1.9,5.6,2.4c5.5,1.1,11.2,1.3,16.8,0.8
			c4.1-0.3,7-1.9,9.1-4.2c2-2.2,2.9-4.6,3.5-7c0.2-0.7,0.4-1.1,1.5-1.1c0.3,0,0.7-0.3,0.7-0.5c0.1-0.8,0.2-1.6,0-2.4
			C288.5,158.2,288,157.7,287.5,157.4z M235.3,159.2c-0.5,3.8-2.4,7.2-6,10.1c-2.6,2.1-6.3,3.1-10.3,3.5c-2,0.2-4.1,0.3-6.6,0.4
			c-1.7-0.2-3.9-0.3-6.1-0.6c-2.1-0.3-4-1-5.1-2.3c-3.5-3.8-5-8-3.6-12.5c0.7-2.3,2.7-3.8,6-4.5c3.4-0.8,6.9-1.1,10.4-1.2
			c4.4-0.2,8.9-0.2,13.2,0.5c0.9,0.1,1.7,0.3,2.6,0.6C233.9,154.4,235.6,156.2,235.3,159.2z M281.2,169.7c-1.7,2.1-4.6,2.9-7.9,3.2
			c-1.4,0.1-2.9,0.1-4.3,0.2c0,0,0,0.1,0,0.1c-2.7-0.2-5.4-0.4-8-0.7c-4.6-0.6-8.1-2.4-10.5-5.2c-2.1-2.4-3.5-5.1-3.9-7.9
			c-0.4-3.3,1.3-5.3,6-6.4c2.3-0.5,4.7-0.8,7.1-0.9c5.7-0.3,11.4-0.1,17.1,0.9c4.7,0.8,7.3,2.7,7.9,5.9
			C285.2,162.8,283.9,166.4,281.2,169.7z"/>
		<g>
			<g>
				<g>
					<path class="st14" d="M291.8,159c-5.1,25.1-19.3,46-50.3,46c-31,0-43.7-20.9-48.8-46c-0.1,1.1-0.1,2.2-0.1,3.4
						c0,27.6,9.8,65.1,49.9,65.1h0c40.1,0,49.4-37.5,49.4-65.1C291.9,161.2,291.9,160.1,291.8,159z"/>
				</g>
			</g>
			<polygon class="st14" points="250.1,207.6 233,207.6 234,199.9 249.1,199.9 			"/>
			<g>
				<path class="st14" d="M276.6,182.7c-3.1,4.8-12.6,7.4-22.6,5.8c-13.6-2.2-15.6-11.5-15.6-11.5s6.9-4.5,15.1-3.2
					C263.5,175.4,265.7,183.1,276.6,182.7z"/>
			</g>
			<g>
				<path class="st14" d="M206.5,181.8c3.2,4.9,12.9,7.8,22.8,6.4c13.6-1.8,15.3-11.1,15.3-11.1s-7-4.7-15.2-3.6
					C219.4,174.8,217.4,182.4,206.5,181.8z"/>
			</g>
		</g>
	</g>
</g>
</svg>
